<svg xmlns="http://www.w3.org/2000/svg" viewBox="0 0 292.24839 120.36939"><defs><style>.a{fill:#bb80c1;}.b{fill:#7f3b72;opacity:0.5;}.c{fill:#fff;}</style></defs><path class="a" d="M272.86127,14.0943C261.80578,4.2675,248.00939.292,242.56107.17227,242.24474.16536,234.13522,0,234.13522,0H145.33864l.0001.00691L49.81537.42817A56.69794,56.69794,0,0,0,13.12,20.5226C1.26386,34.87511.29952,51.22651.059,56.57364c-.19873,4.4179-.96673,31.66231,19.32816,49.70145,11.05549,9.82642,24.85188,13.80233,30.3002,13.92165.31633.00691,8.42585.17265,8.42585.17265h88.79658l-.0001-.0069,95.52347-.42127a56.70251,56.70251,0,0,0,36.69531-20.09443c11.8561-14.35289,12.82044-30.70429,13.061-36.051C292.38816,59.37785,293.15617,32.13344,272.86127,14.0943Z"/><rect class="b" x="136.81752" y="6.41967" width="8.42586" height="107.53005" rx="4.21293"/><path class="c" d="M93.57269,66.07643a23.0433,23.0433,0,0,1-1.46094,6.52246,12.36414,12.36414,0,0,1-8.14844,7.53028,23.22541,23.22541,0,0,1-7.01953.94922h-5.332l2.01855-5.84375h2.25977a14.94821,14.94821,0,0,0,4.38281-.57227,7.84152,7.84152,0,0,0,3.11719-1.76269A8.05792,8.05792,0,0,0,85.3637,69.887a16.26221,16.26221,0,0,0,.94922-4.292l.90332-9.27832a4.07576,4.07576,0,0,0,.06055-.66309V55.051a6.5407,6.5407,0,0,0-.40723-2.46972,3.65606,3.65606,0,0,0-1.18945-1.582,4.9919,4.9919,0,0,0-1.94336-.84375,12.49894,12.49894,0,0,0-2.666-.25586H65.49651V29.98757h7.38086V44.05593h9.51856a20.67364,20.67364,0,0,1,5.06152.57226,10.98283,10.98283,0,0,1,3.8711,1.7627A7.86264,7.86264,0,0,1,93.79827,49.388a9.88393,9.88393,0,0,1,.8584,4.27734q0,.33252-.01465.66309-.01611.33105-.04492.69238Z"/><path class="c" d="M109.93011,81.07839h-7.23047V44.05593h7.23047Z"/><path class="c" d="M140.2348,81.07839h-7.13965l-.90332-12.35059a12.73334,12.73334,0,0,0-3.35938,1.76172,9.86452,9.86452,0,0,0-2.334,2.53027,16.18963,16.18963,0,0,0-1.65723,3.4795q-.69287,1.98926-1.32519,4.5791h-7.65137q.75147-2.83155,1.52051-5.06055a30.80587,30.80587,0,0,1,1.6875-4.02148,17.93761,17.93761,0,0,1,2.06347-3.19336,15.11173,15.11173,0,0,1,2.65039-2.53028,19.72991,19.72991,0,0,1,3.46485-2.04883,38.8742,38.8742,0,0,1,4.458-1.73242l-.60254-7.13867a8.11023,8.11023,0,0,0-.58692-2.65137,4.17011,4.17011,0,0,0-1.28027-1.67187,5.014,5.014,0,0,0-2.00391-.874,13.59,13.59,0,0,0-2.8164-.25586H118.395l.87305-5.84375h5.63379a26.40141,26.40141,0,0,1,5.07617.45214,10.52045,10.52045,0,0,1,4.00586,1.626,8.59023,8.59023,0,0,1,2.75684,3.23828,14.36791,14.36791,0,0,1,1.32519,5.31738Z"/><path class="c" d="M173.06976,81.07839h-7.37989V58.72585q0-4.51758-2.19921-6.92774-2.19874-2.40966-7.13965-2.41015a48.16894,48.16894,0,0,0-6.46192.42187q-3.11718.42188-6.52148,1.084l.81347-6.17578q2.80078-.51125,6.14551-.84278,3.34278-.33105,6.80762-.332a23.17842,23.17842,0,0,1,6.52246.85938,13.1773,13.1773,0,0,1,5.03027,2.68066,11.9902,11.9902,0,0,1,3.23829,4.68457,18.49479,18.49479,0,0,1,1.14453,6.86816Z"/><path class="c" d="M218.19573,81.07839h-7.37988V58.69655a13.46743,13.46743,0,0,0-.543-4.02246,6.98033,6.98033,0,0,0-1.7168-2.90625,7.45857,7.45857,0,0,0-3.01269-1.77734,14.42445,14.42445,0,0,0-4.458-.60254,73.66935,73.66935,0,0,0-7.56152.36133V68.06471a29.207,29.207,0,0,1-.49707,5.64844,11.56843,11.56843,0,0,1-1.68653,4.27735,7.81517,7.81517,0,0,1-3.17773,2.71093,11.51659,11.51659,0,0,1-4.9707.94922q-1.35645,0-2.41016-.10547a15.93263,15.93263,0,0,1-2.07812-.34668l.84277-5.542q.57276.12012,1.085.18067a9.5996,9.5996,0,0,0,1.11426.05957,3.58194,3.58194,0,0,0,3.585-2.22852,8.24786,8.24786,0,0,0,.64746-2.48535,27.228,27.228,0,0,0,.166-3.11817V50.593l-4.51856.7832.75293-6.417q2.22949-.39112,4.60938-.66211,2.3789-.271,4.81933-.4375,2.44042-.16407,4.86524-.24024,2.42431-.07617,4.74414-.07617a25.89443,25.89443,0,0,1,6.82324.84375,14.16383,14.16383,0,0,1,5.30176,2.65137,11.97121,11.97121,0,0,1,3.43457,4.65429,17.34857,17.34857,0,0,1,1.21972,6.85254Z"/></svg>